<svg width="512" height="327" viewBox="0 0 512 327" fill="none" xmlns="http://www.w3.org/2000/svg">
<g filter="url(#filter0_f_502_7)">
<g filter="url(#filter1_d_502_7)">
<path d="M381.345 249H189.913C171.343 248.986 153.498 241.789 140.114 228.915C126.73 216.041 118.845 198.489 118.109 179.933C117.374 161.377 123.845 143.256 136.168 129.364C148.491 115.471 165.71 106.884 184.221 105.4C186.861 86.76 195.278 69.4167 208.289 55.81C221.299 42.2033 238.248 33.018 256.752 29.5464C275.255 26.0748 294.381 28.4916 311.439 36.4567C328.497 44.4219 342.628 57.5346 351.845 73.95C368.75 68.0981 387.015 67.4143 404.31 71.9857C421.605 76.5571 437.146 86.1765 448.952 99.617C460.757 113.057 468.292 129.71 470.594 147.45C472.896 165.19 469.862 183.214 461.879 199.223C457.194 213.688 448.047 226.296 435.751 235.239C423.455 244.182 408.641 249 393.437 249H381.345Z" fill="url(#paint0_linear_502_7)"/>
<path d="M393.437 248C401.157 248 408.748 246.767 415.998 244.336C423.009 241.985 429.59 238.554 435.56 234.139C441.462 229.775 446.635 224.547 450.936 218.6C455.29 212.58 458.652 205.957 460.928 198.915L460.951 198.843L460.985 198.775C464.011 192.728 466.341 186.33 467.911 179.761C469.526 173 470.345 166.015 470.345 158.999C470.345 152.96 469.737 146.925 468.537 141.062C467.368 135.348 465.623 129.728 463.352 124.357C461.121 119.084 458.361 113.997 455.146 109.24C451.962 104.527 448.306 100.095 444.278 96.0671C440.25 92.0394 435.819 88.3828 431.106 85.1988C426.348 81.9844 421.261 79.2236 415.988 76.9932C410.617 74.7216 404.997 72.9769 399.283 71.8077C393.42 70.6078 387.385 69.9995 381.345 69.9995C371.346 69.9995 361.531 71.6451 352.172 74.8907L351.383 75.1646L350.973 74.4361C343.357 60.8943 332.279 49.5217 318.937 41.5478C312.189 37.5152 304.94 34.399 297.391 32.2857C289.602 30.1054 281.512 29 273.345 29C262.361 29 251.638 30.977 241.475 34.876C231.657 38.6427 222.65 44.0837 214.705 51.048C206.806 57.9722 200.251 66.1422 195.221 75.3308C190.069 84.7451 186.701 94.9072 185.211 105.535L185.1 106.33L184.299 106.393C175.341 107.094 166.722 109.453 158.682 113.403C150.869 117.242 143.893 122.434 137.947 128.834C125.729 141.987 119 159.123 119 177.087C119 186.66 120.875 195.947 124.572 204.689C126.349 208.89 128.549 212.943 131.11 216.734C133.647 220.489 136.561 224.02 139.77 227.23C142.979 230.439 146.51 233.352 150.266 235.889C154.056 238.45 158.109 240.65 162.311 242.427C171.052 246.125 180.339 248 189.913 248H381.345H393.437ZM393.437 249H381.345H189.913C150.197 249 118 216.803 118 177.087C118 139.286 147.165 108.297 184.221 105.396C190.35 61.6573 227.917 28 273.345 28C307.048 28 336.422 46.5232 351.845 73.946C361.087 70.7407 371.012 68.9995 381.345 68.9995C431.051 68.9995 471.345 109.294 471.345 158.999C471.345 173.456 467.936 187.118 461.879 199.223C452.544 228.108 425.431 249 393.437 249Z" fill="white" fill-opacity="0.5"/>
</g>
</g>
<g filter="url(#filter2_f_502_7)">
<g filter="url(#filter3_d_502_7)">
<path d="M283.345 295H91.913C73.3426 294.986 55.4976 287.789 42.1137 274.915C28.7298 262.041 20.8447 244.489 20.1092 225.933C19.3737 207.377 25.8448 189.256 38.1677 175.364C50.4906 161.471 67.71 152.884 86.221 151.4C88.8608 132.76 97.2781 115.417 110.289 101.81C123.299 88.2033 140.248 79.018 158.752 75.5464C177.255 72.0748 196.381 74.4916 213.439 82.4567C230.497 90.4219 244.628 103.535 253.845 119.95C270.75 114.098 289.015 113.414 306.31 117.986C323.605 122.557 339.146 132.176 350.952 145.617C362.757 159.057 370.292 175.71 372.594 193.45C374.896 211.19 371.862 229.214 363.879 245.223C359.194 259.688 350.047 272.296 337.751 281.239C325.455 290.182 310.641 295 295.437 295H283.345Z" fill="url(#paint1_linear_502_7)"/>
<path d="M295.437 294C303.157 294 310.748 292.767 317.998 290.336C325.009 287.985 331.59 284.554 337.56 280.139C343.462 275.775 348.635 270.547 352.936 264.6C357.29 258.58 360.652 251.957 362.928 244.915L362.951 244.843L362.985 244.775C366.011 238.728 368.341 232.33 369.911 225.761C371.526 219 372.345 212.015 372.345 204.999C372.345 198.96 371.737 192.925 370.537 187.062C369.368 181.348 367.623 175.728 365.352 170.357C363.121 165.084 360.361 159.997 357.146 155.24C353.962 150.527 350.306 146.095 346.278 142.067C342.25 138.039 337.819 134.383 333.106 131.199C328.348 127.984 323.261 125.224 317.988 122.993C312.617 120.722 306.997 118.977 301.283 117.808C295.42 116.608 289.385 115.999 283.345 115.999C273.346 115.999 263.531 117.645 254.172 120.891L253.383 121.165L252.973 120.436C245.357 106.894 234.279 95.5217 220.937 87.5478C214.189 83.5152 206.94 80.399 199.391 78.2857C191.602 76.1054 183.512 75 175.345 75C164.361 75 153.638 76.977 143.475 80.876C133.657 84.6427 124.65 90.0837 116.705 97.048C108.806 103.972 102.251 112.142 97.2213 121.331C92.0685 130.745 88.7006 140.907 87.2113 151.535L87.0998 152.33L86.299 152.393C77.3408 153.094 68.7219 155.453 60.6818 159.403C52.8694 163.242 45.8932 168.434 39.947 174.834C27.7289 187.987 21 205.123 21 223.087C21 232.66 22.8748 241.947 26.5723 250.689C28.3495 254.89 30.5491 258.943 33.1102 262.734C35.6472 266.489 38.5607 270.02 41.7699 273.23C44.9791 276.439 48.5104 279.352 52.2655 281.889C56.0565 284.45 60.109 286.65 64.3106 288.427C73.0525 292.125 82.3391 294 91.9127 294H283.345H295.437ZM295.437 295H283.345H91.9127C52.1966 295 20 262.803 20 223.087C20 185.286 49.1646 154.297 86.221 151.396C92.3504 107.657 129.917 74 175.345 74C209.048 74 238.422 92.5232 253.845 119.946C263.087 116.741 273.012 114.999 283.345 114.999C333.051 114.999 373.345 155.294 373.345 204.999C373.345 219.456 369.936 233.118 363.879 245.223C354.544 274.108 327.431 295 295.437 295Z" fill="white" fill-opacity="0.5"/>
</g>
</g>
<defs>
<filter id="filter0_f_502_7" x="114" y="24" width="361.345" height="229" filterUnits="userSpaceOnUse" color-interpolation-filters="sRGB">
<feFlood flood-opacity="0" result="BackgroundImageFix"/>
<feBlend mode="normal" in="SourceGraphic" in2="BackgroundImageFix" result="shape"/>
<feGaussianBlur stdDeviation="2" result="effect1_foregroundBlur_502_7"/>
</filter>
<filter id="filter1_d_502_7" x="98" y="-3.05176e-05" width="413.345" height="281" filterUnits="userSpaceOnUse" color-interpolation-filters="sRGB">
<feFlood flood-opacity="0" result="BackgroundImageFix"/>
<feColorMatrix in="SourceAlpha" type="matrix" values="0 0 0 0 0 0 0 0 0 0 0 0 0 0 0 0 0 0 127 0" result="hardAlpha"/>
<feOffset dx="10" dy="2"/>
<feGaussianBlur stdDeviation="15"/>
<feColorMatrix type="matrix" values="0 0 0 0 0.501961 0 0 0 0 0.501961 0 0 0 0 0.501961 0 0 0 0.302 0"/>
<feBlend mode="normal" in2="BackgroundImageFix" result="effect1_dropShadow_502_7"/>
<feBlend mode="normal" in="SourceGraphic" in2="effect1_dropShadow_502_7" result="shape"/>
</filter>
<filter id="filter2_f_502_7" x="16" y="70" width="361.345" height="229" filterUnits="userSpaceOnUse" color-interpolation-filters="sRGB">
<feFlood flood-opacity="0" result="BackgroundImageFix"/>
<feBlend mode="normal" in="SourceGraphic" in2="BackgroundImageFix" result="shape"/>
<feGaussianBlur stdDeviation="2" result="effect1_foregroundBlur_502_7"/>
</filter>
<filter id="filter3_d_502_7" x="0" y="46" width="413.345" height="281" filterUnits="userSpaceOnUse" color-interpolation-filters="sRGB">
<feFlood flood-opacity="0" result="BackgroundImageFix"/>
<feColorMatrix in="SourceAlpha" type="matrix" values="0 0 0 0 0 0 0 0 0 0 0 0 0 0 0 0 0 0 127 0" result="hardAlpha"/>
<feOffset dx="10" dy="2"/>
<feGaussianBlur stdDeviation="15"/>
<feColorMatrix type="matrix" values="0 0 0 0 0.501961 0 0 0 0 0.501961 0 0 0 0 0.501961 0 0 0 0.302 0"/>
<feBlend mode="normal" in2="BackgroundImageFix" result="effect1_dropShadow_502_7"/>
<feBlend mode="normal" in="SourceGraphic" in2="effect1_dropShadow_502_7" result="shape"/>
</filter>
<linearGradient id="paint0_linear_502_7" x1="294.698" y1="28.0025" x2="397.341" y2="276.166" gradientUnits="userSpaceOnUse">
<stop stop-color="white" stop-opacity="0.604"/>
<stop offset="1" stop-color="white" stop-opacity="0.2"/>
</linearGradient>
<linearGradient id="paint1_linear_502_7" x1="196.698" y1="74.0025" x2="299.341" y2="322.166" gradientUnits="userSpaceOnUse">
<stop stop-color="white" stop-opacity="0.604"/>
<stop offset="1" stop-color="white" stop-opacity="0.2"/>
</linearGradient>
</defs>
</svg>
